<svg width="183" height="60" viewBox="0 0 183 60" fill="none" xmlns="http://www.w3.org/2000/svg">
<g id="logos:google" clip-path="url(#clip0_115_2414)">
<path id="Vector" d="M177.3 36.6686L182.377 40.0504C180.729 42.4754 176.788 46.6361 169.975 46.6361C161.514 46.6361 155.213 40.095 155.213 31.7739C155.213 22.9193 161.581 16.9121 169.262 16.9121C176.988 16.9121 180.774 23.0525 181.998 26.3675L182.666 28.0586L162.761 36.2904C164.275 39.2718 166.635 40.7846 169.975 40.7846C173.315 40.7846 175.63 39.1382 177.3 36.6686ZM161.692 31.3071L174.985 25.7893C174.25 23.9429 172.068 22.6304 169.463 22.6304C166.145 22.6304 161.536 25.5671 161.692 31.3071Z" fill="#FF302F"/>
<path id="Vector_2" d="M145.616 1.76107H152.028V45.2789H145.616V1.76071V1.76107Z" fill="#20B15A"/>
<path id="Vector_3" d="M135.508 18.0689H141.698V44.5C141.698 55.4682 135.218 59.9847 127.559 59.9847C120.345 59.9847 116.003 55.1347 114.378 51.1968L120.055 48.8382C121.079 51.2632 123.551 54.1336 127.559 54.1336C132.479 54.1336 135.508 51.0854 135.508 45.39V43.2543H135.285C133.816 45.0339 131.01 46.6357 127.448 46.6357C120.011 46.6357 113.197 40.1614 113.197 31.8186C113.197 23.4307 120.011 16.89 127.448 16.89C130.988 16.89 133.816 18.4697 135.285 20.205H135.508V18.0693V18.0689ZM135.953 31.8186C135.953 26.5679 132.457 22.7411 128.004 22.7411C123.506 22.7411 119.721 26.5679 119.721 31.8186C119.721 37.0022 123.506 40.7622 128.004 40.7622C132.458 40.7847 135.953 37.0022 135.953 31.8186H135.953Z" fill="#3686F7"/>
<path id="Vector_4" d="M77.9948 31.7071C77.9948 40.2729 71.3153 46.5689 63.1214 46.5689C54.9279 46.5689 48.248 40.2507 48.248 31.7071C48.248 23.0971 54.9279 16.8232 63.1214 16.8232C71.3153 16.8232 77.9948 23.0971 77.9948 31.7071ZM71.4933 31.7071C71.4933 26.3679 67.6189 22.6964 63.1214 22.6964C58.624 22.6964 54.7495 26.3679 54.7495 31.7071C54.7495 37.0021 58.624 40.7179 63.1214 40.7179C67.6192 40.7179 71.4933 37.0021 71.4933 31.7071Z" fill="#FF302F"/>
<path id="Vector_5" d="M110.481 31.7739C110.481 40.3396 103.801 46.6357 95.6078 46.6357C87.4139 46.6357 80.7344 40.3393 80.7344 31.7739C80.7344 23.1639 87.4139 16.9121 95.6078 16.9121C103.801 16.9121 110.481 23.1418 110.481 31.7739ZM103.957 31.7739C103.957 26.4346 100.083 22.7632 95.5852 22.7632C91.0878 22.7632 87.2134 26.4346 87.2134 31.7739C87.2134 37.0689 91.0878 40.7846 95.5852 40.7846C100.105 40.7846 103.957 37.0468 103.957 31.7739Z" fill="#FFBA40"/>
<path id="Vector_6" d="M23.8004 40.1171C14.471 40.1171 7.16816 32.5971 7.16816 23.275C7.16816 13.9532 14.471 6.4332 23.8004 6.4332C28.8326 6.4332 32.5061 8.4132 35.2226 10.9496L39.6982 6.47785C35.9131 2.85142 30.8588 0.0921326 23.8004 0.0921326C11.0201 0.0924897 0.265625 10.505 0.265625 23.275C0.265625 36.0457 11.0201 46.4578 23.8004 46.4578C30.703 46.4578 35.9131 44.1886 39.9877 39.9614C44.1735 35.7786 45.4648 29.905 45.4648 25.1439C45.4648 23.6532 45.2868 22.1182 45.0863 20.9836H23.8004V27.1686H38.9633C38.518 31.04 37.2935 33.6875 35.4899 35.4893C33.3078 37.6921 29.8569 40.1171 23.8004 40.1171Z" fill="#3686F7"/>
</g>
<defs>
<clipPath id="clip0_115_2414">
<rect width="183" height="60" fill="white"/>
</clipPath>
</defs>
</svg>
