<svg width="230" height="115" viewBox="0 0 230 115" fill="none" xmlns="http://www.w3.org/2000/svg">
<path id="Ellipse 7" d="M0 -7.62939e-06C-1.32026e-06 15.102 2.97456 30.0561 8.75385 44.0086C14.5331 57.961 23.004 70.6385 33.6827 81.3173C44.3615 91.996 57.039 100.467 70.9914 106.246C84.9438 112.025 99.898 115 115 115C130.102 115 145.056 112.025 159.009 106.246C172.961 100.467 185.639 91.996 196.317 81.3173C206.996 70.6385 215.467 57.961 221.246 44.0086C227.025 30.0562 230 15.102 230 0H209.76C209.76 12.4441 207.309 24.7664 202.547 36.2632C197.785 47.7601 190.805 58.2064 182.006 67.0057C173.206 75.805 162.76 82.785 151.263 87.5471C139.766 92.3093 127.444 94.7603 115 94.7603C102.556 94.7603 90.2336 92.3093 78.7368 87.5471C67.2399 82.785 56.7936 75.805 47.9943 67.0057C39.195 58.2063 32.215 47.76 27.4529 36.2632C22.6907 24.7663 20.2397 12.4441 20.2397 -7.62939e-06H0Z" fill="#FFB000"/>
</svg>
