<svg width="85" height="28" viewBox="0 0 85 28" fill="none" xmlns="http://www.w3.org/2000/svg">
<g id="_Client logo" clip-path="url(#clip0_76_65)">
<path id="Vector" d="M35.9463 14.3593C35.9463 18.2458 32.8611 21.1098 29.0749 21.1098C25.2888 21.1098 22.2036 18.2458 22.2036 14.3593C22.2036 10.4454 25.2888 7.60889 29.0749 7.60889C32.8611 7.60889 35.9463 10.4454 35.9463 14.3593ZM32.9383 14.3593C32.9383 11.9306 31.1502 10.2689 29.0749 10.2689C26.9996 10.2689 25.2116 11.9306 25.2116 14.3593C25.2116 16.7637 26.9996 18.4498 29.0749 18.4498C31.1502 18.4498 32.9383 16.7606 32.9383 14.3593Z" fill="#EA4335"/>
<path id="Vector_2" d="M50.7697 14.3593C50.7697 18.2458 47.6846 21.1098 43.8984 21.1098C40.1122 21.1098 37.0271 18.2458 37.0271 14.3593C37.0271 10.4485 40.1122 7.60889 43.8984 7.60889C47.6846 7.60889 50.7697 10.4454 50.7697 14.3593ZM47.7618 14.3593C47.7618 11.9306 45.9737 10.2689 43.8984 10.2689C41.8231 10.2689 40.035 11.9306 40.035 14.3593C40.035 16.7637 41.8231 18.4498 43.8984 18.4498C45.9737 18.4498 47.7618 16.7606 47.7618 14.3593Z" fill="#FBBC05"/>
<path id="Vector_3" d="M64.9757 8.01671V20.1358C64.9757 25.1211 61.9924 27.1571 58.4657 27.1571C55.1458 27.1571 53.1477 24.9689 52.3942 23.1793L55.013 22.105C55.4793 23.2037 56.622 24.5002 58.4626 24.5002C60.7201 24.5002 62.1191 23.1276 62.1191 20.5437V19.5728H62.0141C61.3408 20.3915 60.0438 21.1067 58.407 21.1067C54.9821 21.1067 51.8445 18.1667 51.8445 14.3837C51.8445 10.5732 54.9821 7.60889 58.407 7.60889C60.0407 7.60889 61.3377 8.3241 62.0141 9.11845H62.1191V8.01976H64.9757V8.01671ZM62.3321 14.3837C62.3321 12.0067 60.7232 10.2689 58.6757 10.2689C56.6004 10.2689 54.8617 12.0067 54.8617 14.3837C54.8617 16.7363 56.6004 18.4498 58.6757 18.4498C60.7232 18.4498 62.3321 16.7363 62.3321 14.3837Z" fill="#4285F4"/>
<path id="Vector_4" d="M69.6853 0.913086V20.6957H66.7515V0.913086H69.6853Z" fill="#34A853"/>
<path id="Vector_5" d="M81.118 16.5807L83.4527 18.1146C82.6992 19.2133 80.8833 21.1063 77.7457 21.1063C73.8545 21.1063 70.9485 18.142 70.9485 14.3559C70.9485 10.3416 73.8792 7.60547 77.4091 7.60547C80.9636 7.60547 82.7023 10.3933 83.2705 11.8998L83.5825 12.6668L74.4258 16.4042C75.1269 17.7585 76.217 18.4494 77.7457 18.4494C79.2775 18.4494 80.3398 17.7068 81.118 16.5807ZM73.9317 14.152L80.0526 11.6472C79.716 10.8042 78.703 10.2168 77.511 10.2168C75.9823 10.2168 73.8545 11.5468 73.9317 14.152Z" fill="#EA4335"/>
<path id="Vector_6" d="M11.0985 12.6031V9.73915H20.8913C20.987 10.2383 21.0364 10.8287 21.0364 11.4678C21.0364 13.6165 20.4404 16.2735 18.5195 18.1665C16.6511 20.0839 14.2639 21.1065 11.1016 21.1065C5.2401 21.1065 0.311279 16.4013 0.311279 10.6248C0.311279 4.84828 5.2401 0.143066 11.1016 0.143066C14.3442 0.143066 16.6542 1.39698 18.3898 3.03133L16.3392 5.0522C15.0947 3.90176 13.4085 3.00698 11.0985 3.00698C6.81819 3.00698 3.47054 6.40654 3.47054 10.6248C3.47054 14.8431 6.81819 18.2426 11.0985 18.2426C13.8748 18.2426 15.456 17.1439 16.4689 16.1457C17.2904 15.3361 17.8308 14.1796 18.0439 12.6L11.0985 12.6031Z" fill="#4285F4"/>
</g>
<defs>
<clipPath id="clip0_76_65">
<rect width="84" height="28" fill="white" transform="translate(0.199951)"/>
</clipPath>
</defs>
</svg>
