<svg width="87" height="24" viewBox="0 0 87 24" fill="none" xmlns="http://www.w3.org/2000/svg">
<g id="_Client logo" clip-path="url(#clip0_76_55)">
<g id="Layer 2">
<g id="Group">
<path id="Vector" d="M9.91331 3.97266V10.7424H3.59817V3.97266H0.599976V20.1327H3.59817V13.5828H9.91331V20.1327H12.9115V3.97266H9.91331Z" fill="#33475B"/>
<path id="Vector_2" d="M22.5068 14.9089C22.5068 15.5566 22.2455 16.1777 21.7804 16.6356C21.3152 17.0936 20.6843 17.3508 20.0265 17.3508C19.3686 17.3508 18.7377 17.0936 18.2726 16.6356C17.8074 16.1777 17.5461 15.5566 17.5461 14.9089V7.9873H14.7021V14.9089C14.7021 16.2978 15.2626 17.6298 16.2601 18.6119C17.2576 19.5939 18.6106 20.1457 20.0213 20.1457C21.4321 20.1457 22.785 19.5939 23.7826 18.6119C24.7801 17.6298 25.3405 16.2978 25.3405 14.9089V7.9873H22.5068V14.9089Z" fill="#33475B"/>
<path id="Vector_3" d="M43.5781 8.70035C43.5781 7.28161 44.5315 6.83183 45.5759 6.83183C46.4176 6.83183 47.5296 7.46238 48.2568 8.22743L50.1195 6.06678C49.1896 4.82882 47.3034 3.97266 45.7595 3.97266C42.6747 3.97266 40.4433 5.75151 40.4433 8.70035C40.4433 14.1714 47.2358 12.4359 47.2358 15.4976C47.2358 16.442 46.3045 17.2764 45.238 17.2764C43.556 17.2764 43.0111 16.4665 42.2384 15.6104L40.1715 17.7262C41.4936 19.3243 43.1242 20.1356 45.0779 20.1356C48.0085 20.1356 50.3662 18.3351 50.3662 15.5207C50.3662 9.44659 43.5737 11.3339 43.5737 8.70035" fill="#33475B"/>
<path id="Vector_4" d="M85.5996 17.5512C83.9191 17.5512 83.4417 16.8353 83.4417 15.7391V10.887H86.0535V8.42844H83.4417V5.18457L80.5581 6.45869V16.3421C80.5581 18.8701 82.3297 20.1443 84.7594 20.1443C85.1404 20.1511 85.5213 20.1211 85.8964 20.0546L86.6 17.5049C86.2827 17.5266 85.9184 17.5483 85.5996 17.5483" fill="#33475B"/>
<path id="Vector_5" d="M33.3318 8.06813C31.923 8.06813 30.9403 8.47018 29.9898 9.38853V4.06934H27.1415V13.9282C27.1415 17.619 29.8517 20.1469 32.8969 20.1469C36.2756 20.1469 39.2473 17.5741 39.2473 14.109C39.2473 10.6872 36.5121 8.06958 33.3318 8.06958V8.06813ZM33.3141 17.3254C32.675 17.3254 32.0501 17.1388 31.5187 16.7892C30.9872 16.4396 30.573 15.9426 30.3284 15.3613C30.0838 14.7799 30.0198 14.1402 30.1445 13.523C30.2692 12.9058 30.577 12.3389 31.0289 11.8939C31.4809 11.4489 32.0568 11.1459 32.6837 11.0231C33.3106 10.9004 33.9603 10.9634 34.5509 11.2042C35.1414 11.445 35.6461 11.8528 36.0012 12.376C36.3564 12.8993 36.5459 13.5144 36.5459 14.1437C36.5459 14.9875 36.2054 15.7968 35.5993 16.3935C34.9933 16.9902 34.1713 17.3254 33.3141 17.3254Z" fill="#33475B"/>
<path id="Vector_6" d="M64.2597 13.9618C64.2597 10.4909 61.2938 7.92383 57.9093 7.92383C54.8641 7.92383 52.1538 10.4518 52.1538 14.1426V24.0072H55.0022V18.6808C55.9511 19.5977 56.9353 20.0012 58.3426 20.0012C61.523 20.0012 64.2582 17.385 64.2582 13.9618H64.2597ZM61.5626 13.9271C61.5626 14.5564 61.3731 15.1715 61.018 15.6947C60.6629 16.2179 60.1581 16.6258 59.5676 16.8666C58.9771 17.1074 58.3273 17.1704 57.7004 17.0476C57.0735 16.9249 56.4976 16.6218 56.0457 16.1769C55.5937 15.7319 55.2859 15.165 55.1612 14.5478C55.0365 13.9306 55.1005 13.2909 55.3451 12.7095C55.5897 12.1281 56.0039 11.6312 56.5354 11.2816C57.0669 10.932 57.6917 10.7454 58.3309 10.7454C59.188 10.7454 60.01 11.0806 60.6161 11.6773C61.2221 12.274 61.5626 13.0832 61.5626 13.9271Z" fill="#33475B"/>
</g>
<path id="Vector_7" d="M73.4615 7.78787V4.97063C73.8397 4.79667 74.1598 4.52054 74.3848 4.17438C74.6098 3.82823 74.7302 3.42628 74.7322 3.01535V2.95027C74.7322 2.37493 74.5 1.82315 74.0868 1.41632C73.6735 1.00949 73.1131 0.780939 72.5287 0.780939H72.4626C71.8782 0.780939 71.3177 1.00949 70.9045 1.41632C70.4913 1.82315 70.2591 2.37493 70.2591 2.95027V3.01535C70.2611 3.42628 70.3815 3.82823 70.6065 4.17438C70.8314 4.52054 71.1516 4.79667 71.5298 4.97063V7.78787C70.4429 7.95157 69.4192 8.3951 68.5624 9.07356L60.7151 3.05584C60.7707 2.8574 60.8003 2.6528 60.8033 2.44698C60.8042 1.96352 60.6594 1.49067 60.3872 1.08823C60.1151 0.685791 59.7279 0.371847 59.2745 0.186108C58.8211 0.000369021 58.322 -0.0488204 57.8402 0.0447614C57.3584 0.138343 56.9156 0.370492 56.5679 0.711844C56.2201 1.0532 55.983 1.48842 55.8865 1.96245C55.79 2.43649 55.8385 2.92805 56.0258 3.37496C56.2132 3.82186 56.5309 4.20404 56.9389 4.47314C57.3468 4.74224 57.8267 4.88618 58.3178 4.88675C58.7472 4.88486 59.1686 4.77217 59.54 4.55991L67.2683 10.4793C66.5738 11.5118 66.2115 12.7264 66.2286 13.9647C66.2456 15.203 66.6412 16.4075 67.3637 17.4211L65.0134 19.7351C64.8233 19.6753 64.6253 19.6436 64.4258 19.6411C64.0226 19.6414 63.6286 19.7593 63.2936 19.98C62.9585 20.2007 62.6974 20.5142 62.5432 20.8809C62.3891 21.2477 62.3488 21.6511 62.4276 22.0404C62.5063 22.4296 62.7004 22.7872 62.9855 23.0678C63.2706 23.3485 63.6337 23.5396 64.0291 23.6171C64.4245 23.6946 64.8343 23.655 65.2069 23.5033C65.5794 23.3515 65.8978 23.0944 66.122 22.7646C66.3461 22.4347 66.4659 22.0468 66.4662 21.6499C66.4637 21.4534 66.4315 21.2585 66.3707 21.0714L68.6961 18.782C69.4544 19.3565 70.3361 19.7525 71.2738 19.9397C72.2115 20.1268 73.1803 20.1003 74.106 19.8619C75.0316 19.6236 75.8896 19.1799 76.6142 18.5647C77.3387 17.9495 77.9107 17.1793 78.2862 16.3129C78.6617 15.4465 78.8309 14.507 78.7807 13.5664C78.7305 12.6257 78.4622 11.7088 77.9965 10.886C77.5309 10.0631 76.8801 9.35614 76.094 8.81913C75.3079 8.28212 74.4074 7.92936 73.4615 7.78787ZM72.4978 17.0523C71.8617 17.0518 71.2401 16.8656 70.7115 16.5173C70.1829 16.169 69.771 15.6742 69.5279 15.0955C69.2848 14.5168 69.2214 13.8801 69.3458 13.266C69.4701 12.6518 69.7766 12.0878 70.2265 11.6451C70.6764 11.2023 71.2495 10.9009 71.8733 10.7787C72.4972 10.6566 73.1439 10.7193 73.7316 10.9589C74.3192 11.1984 74.8216 11.6042 75.1752 12.1248C75.5287 12.6454 75.7175 13.2574 75.7178 13.8837C75.7178 14.7237 75.3789 15.5293 74.7756 16.1232C74.1723 16.7172 73.354 17.0509 72.5008 17.0509" fill="#FF7A59"/>
</g>
</g>
<defs>
<clipPath id="clip0_76_55">
<rect width="86" height="24" fill="white" transform="translate(0.599976)"/>
</clipPath>
</defs>
</svg>
