<svg width="100" height="100" viewBox="0 0 100 100" fill="none" xmlns="http://www.w3.org/2000/svg">
<g id="Group 40">
<circle id="Ellipse 3" cx="50" cy="50" r="50" fill="#FFB000"/>
<path id="Vector" d="M40.7509 48.7407C43.3369 48.7407 45.817 47.7008 47.6456 45.8498C49.4742 43.9987 50.5015 41.4882 50.5015 38.8704C50.5015 36.2526 49.4742 33.742 47.6456 31.891C45.817 30.0399 43.3369 29 40.7509 29C38.1649 29 35.6848 30.0399 33.8562 31.891C32.0276 33.742 31.0004 36.2526 31.0004 38.8704C31.0004 41.4882 32.0276 43.9987 33.8562 45.8498C35.6848 47.7008 38.1649 48.7407 40.7509 48.7407ZM57.8129 64.3663C59.403 65.0253 61.4251 65.4444 63.9993 65.4444C76 65.4444 76 56.3333 76 56.3333C76 55.1257 75.5263 53.9674 74.683 53.1131C73.8397 52.2589 72.6958 51.7786 71.5027 51.7778H57.6179C58.797 53.2234 59.505 55.073 59.505 57.0926V58.1738C59.4989 58.4295 59.4819 58.6849 59.454 58.9391C59.2516 60.8367 58.6927 62.6782 57.8129 64.3663ZM71.5027 41.1481C71.5027 43.1618 70.7125 45.093 69.3059 46.5169C67.8993 47.9408 65.9915 48.7407 64.0023 48.7407C62.0131 48.7407 60.1053 47.9408 58.6987 46.5169C57.2921 45.093 56.5019 43.1618 56.5019 41.1481C56.5019 39.1345 57.2921 37.2033 58.6987 35.7794C60.1053 34.3555 62.0131 33.5556 64.0023 33.5556C65.9915 33.5556 67.8993 34.3555 69.3059 35.7794C70.7125 37.2033 71.5027 39.1345 71.5027 41.1481ZM25 57.8519C25 56.2409 25.6322 54.6959 26.7575 53.5568C27.8827 52.4177 29.409 51.7778 31.0004 51.7778H50.5015C52.0929 51.7778 53.6191 52.4177 54.7444 53.5568C55.8697 54.6959 56.5019 56.2409 56.5019 57.8519C56.5019 57.8519 56.5019 70 40.7509 70C25 70 25 57.8519 25 57.8519Z" fill="white"/>
</g>
</svg>
