<svg width="27" height="27" viewBox="0 0 27 27" fill="none" xmlns="http://www.w3.org/2000/svg">
<g id="Group 35665">
<path id="Vector" d="M25.0082 0.000102246H1.9918C1.46958 -0.00521251 0.966571 0.196858 0.593157 0.561974C0.219742 0.927091 0.00642053 1.42543 0 1.94764V25.057C0.00758165 25.5784 0.221414 26.0756 0.594702 26.4398C0.96799 26.804 1.47033 27.0054 1.9918 27.0001H25.0082C25.5305 27.0042 26.0331 26.8015 26.4063 26.4361C26.7796 26.0708 26.993 25.5726 27 25.0504V1.941C26.9907 1.42032 26.7762 0.924358 26.4033 0.560918C26.0303 0.197478 25.5289 -0.0040632 25.0082 0.000102246Z" fill="#0076B2"/>
<path id="Vector_2" d="M3.99691 10.1207H8.00486V23.0165H3.99691V10.1207ZM6.00199 3.70264C6.46169 3.70264 6.91105 3.83898 7.29324 4.09442C7.67543 4.34985 7.97327 4.71291 8.14909 5.13765C8.3249 5.56239 8.37079 6.02974 8.28095 6.48057C8.19111 6.93139 7.96957 7.34545 7.64436 7.67034C7.31916 7.99524 6.90489 8.21638 6.45398 8.3058C6.00307 8.39521 5.53577 8.34888 5.11119 8.17265C4.68662 7.99643 4.32385 7.69825 4.06877 7.31581C3.8137 6.93338 3.67779 6.48389 3.67822 6.02419C3.67881 5.40828 3.92389 4.81778 4.35962 4.38247C4.79535 3.94716 5.38608 3.70264 6.00199 3.70264ZM10.519 10.1207H14.3609V11.8912H14.414C14.9496 10.8776 16.2554 9.80862 18.2051 9.80862C22.264 9.79977 23.0164 12.471 23.0164 15.9345V23.0165H19.0085V16.7423C19.0085 15.2485 18.9819 13.3253 16.9259 13.3253C14.8699 13.3253 14.5203 14.9541 14.5203 16.6449V23.0165H10.519V10.1207Z" fill="white"/>
</g>
</svg>
