<svg width="123" height="26" viewBox="0 0 123 26" fill="none" xmlns="http://www.w3.org/2000/svg">
<g id="_Client logo" clip-path="url(#clip0_76_72)">
<path id="Vector" d="M43.8637 14.9753L43.1365 17.0311H43.0759C42.9547 16.5675 42.7325 15.8621 42.369 15.0156L38.4706 5.24042H34.6531V20.8203H37.1779V11.2063C37.1779 10.6017 37.1779 9.91639 37.1577 9.06987C37.1375 8.64662 37.0971 8.32414 37.0769 8.08228H37.1375C37.2587 8.68693 37.4001 9.13034 37.5011 9.41251L42.1872 20.78H43.9647L48.6104 9.31173C48.7114 9.04972 48.8123 8.52569 48.9133 8.08228H48.9739C48.9133 9.23111 48.8729 10.259 48.8527 10.8838V20.7598H51.5392V5.20011H47.863L43.8637 14.9753ZM54.0842 9.5939H56.71V20.7598H54.0842V9.5939ZM55.4173 4.87763C54.9729 4.87763 54.6094 5.03887 54.3064 5.32104C54.0034 5.60321 53.8418 5.966 53.8418 6.40941C53.8418 6.83266 54.0034 7.19546 54.3064 7.47763C54.6094 7.7598 54.9729 7.90088 55.4173 7.90088C55.8617 7.90088 56.2455 7.73964 56.5282 7.47763C56.8312 7.19546 56.9928 6.83266 56.9928 6.40941C56.9928 5.98615 56.8312 5.62336 56.5282 5.32104C56.2657 5.03887 55.8819 4.87763 55.4173 4.87763ZM66.0216 9.49313C65.5368 9.39235 65.0319 9.33189 64.5471 9.33189C63.3554 9.33189 62.2647 9.59391 61.3557 10.1179C60.4468 10.642 59.7196 11.3675 59.2551 12.2745C58.7703 13.2017 58.5279 14.2699 58.5279 15.4993C58.5279 16.5675 58.7703 17.5148 59.2349 18.3815C59.6994 19.228 60.3458 19.9133 61.2143 20.3769C62.0425 20.8404 63.012 21.0823 64.1027 21.0823C65.3551 21.0823 66.4256 20.8203 67.2739 20.3365L67.2941 20.3164V17.8978L67.1931 17.9784C66.8094 18.2606 66.365 18.5024 65.9206 18.6435C65.4561 18.8048 65.0319 18.8854 64.6683 18.8854C63.618 18.8854 62.7898 18.5831 62.2041 17.9179C61.5981 17.273 61.2951 16.3862 61.2951 15.2776C61.2951 14.1288 61.5981 13.2218 62.2243 12.5567C62.8504 11.8916 63.6786 11.5489 64.6885 11.5489C65.5368 11.5489 66.4054 11.8311 67.1931 12.3955L67.2941 12.4761V9.91639L67.2739 9.89623C66.9306 9.75515 66.5468 9.5939 66.0216 9.49313ZM74.6868 9.41251C74.0405 9.41251 73.4345 9.61406 72.9094 10.0373C72.465 10.4001 72.162 10.9241 71.8994 11.5489H71.8792V9.5939H69.2534V20.7598H71.8792V15.0559C71.8792 14.0885 72.0812 13.2823 72.5256 12.6978C72.97 12.0931 73.5355 11.7908 74.2223 11.7908C74.4647 11.7908 74.707 11.8513 75.01 11.8916C75.2928 11.9722 75.4948 12.0528 75.6362 12.1536L75.7372 12.2342V9.61406L75.6766 9.5939C75.4948 9.47297 75.1312 9.41251 74.6868 9.41251ZM81.8372 9.35205C79.9991 9.35205 78.5246 9.89623 77.4945 10.9644C76.4441 12.0327 75.9392 13.504 75.9392 15.3582C75.9392 17.0916 76.4643 18.5024 77.4743 19.5303C78.4842 20.5381 79.8577 21.0621 81.5746 21.0621C83.3723 21.0621 84.8064 20.5179 85.8365 19.4296C86.8868 18.3412 87.3918 16.89 87.3918 15.0962C87.3918 13.3226 86.907 11.9117 85.9173 10.8838C84.968 9.85592 83.5743 9.35205 81.8372 9.35205ZM83.9378 17.9381C83.4531 18.5629 82.6855 18.8652 81.7362 18.8652C80.7868 18.8652 80.0193 18.5629 79.4739 17.8978C78.9286 17.273 78.666 16.366 78.666 15.2172C78.666 14.028 78.9488 13.121 79.4739 12.4761C80.0193 11.8311 80.7666 11.5086 81.716 11.5086C82.6451 11.5086 83.3723 11.811 83.8974 12.4358C84.4226 13.0606 84.7054 13.9675 84.7054 15.1567C84.665 16.366 84.4428 17.3133 83.9378 17.9381ZM93.2494 14.2296C92.4213 13.8869 91.8961 13.6249 91.6537 13.4032C91.4517 13.2017 91.3507 12.9195 91.3507 12.5567C91.3507 12.2544 91.4719 11.952 91.7749 11.7505C92.0779 11.5489 92.4213 11.4482 92.9262 11.4482C93.3706 11.4482 93.8352 11.5288 94.2796 11.6497C94.7239 11.7706 95.1279 11.952 95.4511 12.1939L95.5521 12.2745V9.81561L95.4915 9.79546C95.1885 9.67453 94.7845 9.5536 94.2998 9.45282C93.815 9.3722 93.3706 9.33189 93.007 9.33189C91.7547 9.33189 90.7246 9.63421 89.9166 10.2993C89.1087 10.9241 88.7249 11.7706 88.7249 12.7582C88.7249 13.2823 88.8057 13.7458 88.9875 14.1288C89.1693 14.5117 89.4319 14.8745 89.7955 15.1769C90.159 15.459 90.6842 15.7815 91.4113 16.0838C92.0173 16.3458 92.4819 16.5474 92.7647 16.7086C93.0474 16.8699 93.2292 17.0513 93.3706 17.1924C93.4716 17.3536 93.5322 17.5551 93.5322 17.8172C93.5322 18.5629 92.9666 18.9257 91.8153 18.9257C91.3709 18.9257 90.9064 18.8451 90.361 18.6637C89.8157 18.4823 89.3107 18.2203 88.8865 17.9179L88.7855 17.8373V20.397L88.8461 20.4172C89.2299 20.5986 89.6945 20.7195 90.26 20.8606C90.8256 20.9613 91.3306 21.042 91.7749 21.042C93.1282 21.042 94.2392 20.7396 95.0269 20.0745C95.8349 19.4296 96.259 18.6032 96.259 17.535C96.259 16.7893 96.057 16.1241 95.6127 15.6203C95.0269 15.1365 94.2998 14.6327 93.2494 14.2296ZM103.187 9.35205C101.349 9.35205 99.8746 9.89623 98.8445 10.9644C97.8143 12.0327 97.2892 13.504 97.2892 15.3582C97.2892 17.0916 97.8143 18.5024 98.8243 19.5303C99.8342 20.5381 101.208 21.0621 102.925 21.0621C104.722 21.0621 106.156 20.5179 107.187 19.4296C108.237 18.3412 108.742 16.89 108.742 15.0962C108.742 13.3226 108.257 11.9117 107.267 10.8838C106.318 9.85592 104.924 9.35205 103.187 9.35205ZM105.268 17.9381C104.783 18.5629 104.015 18.8652 103.066 18.8652C102.096 18.8652 101.349 18.5629 100.804 17.8978C100.258 17.273 99.9958 16.366 99.9958 15.2172C99.9958 14.028 100.279 13.121 100.804 12.4761C101.349 11.8311 102.096 11.5086 103.046 11.5086C103.955 11.5086 104.702 11.811 105.227 12.4358C105.752 13.0606 106.035 13.9675 106.035 15.1567C106.035 16.366 105.773 17.3133 105.268 17.9381ZM122.78 11.7505V9.5939H120.134V6.28848L120.053 6.30863L117.548 7.05437L117.488 7.07453V9.5939H113.529V8.18305C113.529 7.53809 113.69 7.03422 113.973 6.71173C114.256 6.38925 114.68 6.22801 115.205 6.22801C115.569 6.22801 115.953 6.30863 116.377 6.49003L116.478 6.55049V4.27298L116.417 4.25282C116.054 4.13189 115.569 4.05127 114.943 4.05127C114.155 4.05127 113.468 4.23266 112.842 4.53499C112.216 4.87763 111.751 5.34119 111.408 5.966C111.065 6.57065 110.883 7.25592 110.883 8.04197V9.5939H109.045V11.7303H110.883V20.7598H113.529V11.7505H117.488V17.4947C117.488 19.8528 118.599 21.042 120.821 21.042C121.184 21.042 121.568 20.9815 121.932 20.921C122.315 20.8404 122.598 20.7396 122.76 20.659L122.78 20.6389V18.4823L122.679 18.5629C122.517 18.6637 122.376 18.7443 122.134 18.8048C121.932 18.8652 121.75 18.8854 121.608 18.8854C121.083 18.8854 120.72 18.7644 120.457 18.4621C120.215 18.18 120.093 17.7164 120.093 17.0311V11.7505H122.78Z" fill="#737373"/>
<path id="Vector_2" d="M0.800049 0H13.1818V12.355H0.800049V0Z" fill="#F25022"/>
<path id="Vector_3" d="M14.4744 0H26.8562V12.355H14.4744V0Z" fill="#7FBA00"/>
<path id="Vector_4" d="M0.800049 13.645H13.1818V26.0001H0.800049V13.645Z" fill="#00A4EF"/>
<path id="Vector_5" d="M14.4744 13.645H26.8562V26.0001H14.4744V13.645Z" fill="#FFB900"/>
</g>
<defs>
<clipPath id="clip0_76_72">
<rect width="122" height="26" fill="white" transform="translate(0.800049)"/>
</clipPath>
</defs>
</svg>
