<svg width="146" height="18" viewBox="0 0 146 18" fill="none" xmlns="http://www.w3.org/2000/svg">
<g id="Group 52">
<g id="bxl-facebook">
<path id="Path" d="M6.065 17.997V9.801H8.83L9.241 6.592H6.065V4.548C6.065 3.622 6.323 2.988 7.652 2.988H9.336V0.126997C8.517 0.0389974 7.693 -0.00300262 6.869 -2.6249e-06C4.425 -2.6249e-06 2.747 1.492 2.747 4.231V6.586H0V9.795H2.753V17.997H6.065Z" fill="white"/>
</g>
<g id="bxl-twitter">
<path id="Path_2" d="M96.301 4.99701C96.314 5.17201 96.314 5.34601 96.314 5.52001C96.314 10.845 92.261 16.981 84.854 16.981C82.572 16.981 80.452 16.32 78.668 15.172C78.992 15.209 79.304 15.222 79.641 15.222C81.524 15.222 83.257 14.586 84.642 13.501C82.871 13.464 81.387 12.304 80.875 10.708C81.124 10.745 81.374 10.77 81.636 10.77C81.997 10.77 82.36 10.72 82.697 10.633C80.85 10.259 79.467 8.63801 79.467 6.68001V6.63001C80.004 6.92901 80.627 7.11601 81.287 7.14101C80.202 6.41901 79.491 5.18401 79.491 3.78701C79.491 3.03901 79.69 2.35301 80.039 1.75501C82.022 4.19801 85.003 5.79501 88.345 5.97001C88.283 5.67001 88.245 5.35901 88.245 5.04701C88.245 2.82701 90.041 1.01901 92.273 1.01901C93.433 1.01901 94.48 1.50501 95.216 2.29101C96.126 2.11601 96.998 1.77901 97.772 1.31801C97.473 2.25301 96.836 3.03901 96.001 3.53801C96.812 3.45001 97.598 3.22601 98.32 2.91401C97.772 3.71201 97.087 4.42301 96.301 4.99701Z" fill="white"/>
</g>
<g id="instagram-logo">
<path id="Shape" fill-rule="evenodd" clip-rule="evenodd" d="M48.168 0H39.168C36.6932 0 34.668 2.02432 34.668 4.5V13.5C34.668 15.9748 36.6932 18 39.168 18H48.168C50.6427 18 52.668 15.9748 52.668 13.5V4.5C52.668 2.02432 50.6427 0 48.168 0ZM43.668 12.7499C41.5966 12.7499 39.9179 11.0704 39.9179 9C39.9179 6.92865 41.5966 5.24993 43.668 5.24993C45.7384 5.24993 47.418 6.92865 47.418 9C47.418 11.0704 45.7384 12.7499 43.668 12.7499ZM47.418 4.12492C47.418 4.74615 47.9211 5.24992 48.543 5.24992C49.1649 5.24992 49.668 4.74615 49.668 4.12492C49.668 3.5037 49.1649 2.99992 48.543 2.99992C47.9211 2.99992 47.418 3.5037 47.418 4.12492Z" fill="white"/>
</g>
<g id="youtube-logo">
<path id="Shape_2" fill-rule="evenodd" clip-rule="evenodd" d="M143.635 1.73149C144.597 1.85679 145.516 2.7921 145.633 3.76751C146.047 7.34222 146.047 10.8086 145.633 14.3822C145.516 15.3576 144.597 16.2941 143.635 16.4182C137.771 17.1469 131.84 17.1469 125.977 16.4182C125.015 16.2938 124.096 15.3576 123.979 14.3822C123.565 10.8083 123.565 7.34222 123.979 3.76751C124.096 2.7921 125.015 1.85651 125.977 1.73149C131.84 1.00279 137.771 1.00279 143.635 1.73149ZM132.95 5.36274V12.7881L138.518 9.07556L132.95 5.36274Z" fill="white"/>
</g>
</g>
</svg>
