<svg width="80" height="80" viewBox="0 0 80 80" fill="none" xmlns="http://www.w3.org/2000/svg">
<g id="Group 42">
<circle id="Ellipse 2" cx="40" cy="40" r="40" fill="#FFB000"/>
<path id="Vector" d="M34.3061 26.816C36.8401 22.272 38.106 20 40 20C41.894 20 43.1599 22.272 45.6939 26.816L46.3498 27.992C47.0698 29.284 47.4298 29.93 47.9898 30.356C48.5498 30.782 49.2498 30.94 50.6497 31.256L51.9217 31.544C56.8416 32.658 59.2995 33.214 59.8855 35.096C60.4695 36.9761 58.7936 38.9381 55.4396 42.8601L54.5717 43.8741C53.6197 44.9881 53.1417 45.5461 52.9277 46.2341C52.7137 46.9241 52.7857 47.6681 52.9297 49.1541L53.0617 50.5081C53.5677 55.7421 53.8217 58.3581 52.2897 59.5201C50.7577 60.6841 48.4538 59.6221 43.8499 57.5021L42.6559 56.9541C41.348 56.3501 40.694 56.0501 40 56.0501C39.306 56.0501 38.652 56.3501 37.3421 56.9541L36.1521 57.5021C31.5462 59.6221 29.2423 60.6821 27.7123 59.5221C26.1783 58.3581 26.4323 55.7421 26.9383 50.5081L27.0703 49.1561C27.2143 47.6681 27.2863 46.9241 27.0703 46.2361C26.8583 45.5461 26.3803 44.9881 25.4283 43.8761L24.5604 42.8601C21.2064 38.9401 19.5305 36.9781 20.1145 35.096C20.7005 33.214 23.1604 32.656 28.0803 31.544L29.3523 31.256C30.7502 30.94 31.4482 30.782 32.0102 30.356C32.5702 29.93 32.9302 29.284 33.6501 27.992L34.3061 26.816Z" fill="white"/>
</g>
</svg>
